<svg height="194" viewBox="0 0 1112 194" width="1112" xmlns="http://www.w3.org/2000/svg"><g fill="none" fill-rule="evenodd" stroke="#2b2b2b" stroke-width="2" transform="translate(1 1)"><path d="m65.2641249 16c-10.8773541 10.6666667-21.7547083 16-32.6320624 16-10.7073955 0-21.414791-5.1679688-32.12218652-15.5039062l-.50987598-.4960938m195.792375 0c-10.877354 10.6666667-21.754708 16-32.632063 16-10.707395 0-21.414791-5.1679688-32.122186-15.5039062l-.509876-.4960938m195.792375 0c-10.877354 10.6666667-21.754709 16-32.632063 16-10.707395 0-21.414791-5.1679688-32.122186-15.5039062l-.509876-.4960938m195.792375 0c-10.877355 10.6666667-21.754709 16-32.632063 16-10.707395 0-21.414791-5.1679688-32.122186-15.5039062l-.509876-.4960938m195.792374 0c-10.877354 10.6666667-21.754708 16-32.632062 16-10.707395 0-21.414791-5.1679688-32.122186-15.5039062l-.509876-.4960938m195.792374 0c-10.877354 10.6666667-21.754708 16-32.632062 16-10.707396 0-21.414791-5.1679688-32.122187-15.5039062l-.509876-.4960938m195.792375 0c-10.877354 10.6666667-21.754708 16-32.632062 16-10.707396 0-21.414791-5.1679688-32.122187-15.5039062l-.509876-.4960938m195.792375 0c-10.877354 10.6666667-21.754708 16-32.632062 16-10.707396 0-21.414791-5.1679688-32.122187-15.5039062l-.509876-.4960938m195.792371 0c-10.87735 10.6666667-21.7547 16-32.63206 16-10.70739 0-21.41479-5.1679688-32.12218-15.5039062l-.50988-.4960938m-65.264126 0 .509876-.4960938c10.707396-10.33593745 21.41479-15.5039062 32.12219-15.5039062 10.87735 0 21.7547 5.33333333 32.63206 16m-195.792376 0 .509876-.4960938c10.707396-10.33593745 21.414791-15.5039062 32.122187-15.5039062 10.877354 0 21.754708 5.33333333 32.632062 16m-195.792375 0 .509876-.4960938c10.707396-10.33593745 21.414791-15.5039062 32.122187-15.5039062 10.877354 0 21.754708 5.33333333 32.632062 16m-195.792375 0 .509876-.4960938c10.707396-10.33593745 21.414791-15.5039062 32.122187-15.5039062 10.877354 0 21.754708 5.33333333 32.632062 16m-195.792374 0 .509876-.4960938c10.707395-10.33593745 21.414791-15.5039062 32.122186-15.5039062 10.877354 0 21.754708 5.33333333 32.632063 16m-195.792375 0 .509876-.4960938c10.707395-10.33593745 21.414791-15.5039062 32.122186-15.5039062 10.877354 0 21.754708 5.33333333 32.632063 16m-195.792375 0 .509876-.4960938c10.707395-10.33593745 21.414791-15.5039062 32.122186-15.5039062 10.877354 0 21.754709 5.33333333 32.632063 16m-195.7923751 0 .509876-.4960938c10.7073955-10.33593745 21.414791-15.5039062 32.1221865-15.5039062 10.8773546 0 21.7547086 5.33333333 32.6320626 16m978.96187 0 .50988-.4960938"/><path d="m65.2641249 48c-10.8773541 10.6666667-21.7547083 16-32.6320624 16-10.7073955 0-21.414791-5.1679688-32.12218652-15.5039062l-.50987598-.4960938m195.792375 0c-10.877354 10.6666667-21.754708 16-32.632063 16-10.707395 0-21.414791-5.1679688-32.122186-15.5039062l-.509876-.4960938m195.792375 0c-10.877354 10.6666667-21.754709 16-32.632063 16-10.707395 0-21.414791-5.1679688-32.122186-15.5039062l-.509876-.4960938m195.792375 0c-10.877355 10.6666667-21.754709 16-32.632063 16-10.707395 0-21.414791-5.1679688-32.122186-15.5039062l-.509876-.4960938m195.792374 0c-10.877354 10.6666667-21.754708 16-32.632062 16-10.707395 0-21.414791-5.1679688-32.122186-15.5039062l-.509876-.4960938m195.792374 0c-10.877354 10.6666667-21.754708 16-32.632062 16-10.707396 0-21.414791-5.1679688-32.122187-15.5039062l-.509876-.4960938m195.792375 0c-10.877354 10.6666667-21.754708 16-32.632062 16-10.707396 0-21.414791-5.1679688-32.122187-15.5039062l-.509876-.4960938m195.792375 0c-10.877354 10.6666667-21.754708 16-32.632062 16-10.707396 0-21.414791-5.1679688-32.122187-15.5039062l-.509876-.4960938m195.792371 0c-10.87735 10.6666667-21.7547 16-32.63206 16-10.70739 0-21.41479-5.1679688-32.12218-15.5039062l-.50988-.4960938m-65.264126 0 .509876-.4960938c10.707396-10.3359374 21.41479-15.5039062 32.12219-15.5039062 10.87735 0 21.7547 5.3333333 32.63206 16m-195.792376 0 .509876-.4960938c10.707396-10.3359374 21.414791-15.5039062 32.122187-15.5039062 10.877354 0 21.754708 5.3333333 32.632062 16m-195.792375 0 .509876-.4960938c10.707396-10.3359374 21.414791-15.5039062 32.122187-15.5039062 10.877354 0 21.754708 5.3333333 32.632062 16m-195.792375 0 .509876-.4960938c10.707396-10.3359374 21.414791-15.5039062 32.122187-15.5039062 10.877354 0 21.754708 5.3333333 32.632062 16m-195.792374 0 .509876-.4960938c10.707395-10.3359374 21.414791-15.5039062 32.122186-15.5039062 10.877354 0 21.754708 5.3333333 32.632063 16m-195.792375 0 .509876-.4960938c10.707395-10.3359374 21.414791-15.5039062 32.122186-15.5039062 10.877354 0 21.754708 5.3333333 32.632063 16m-195.792375 0 .509876-.4960938c10.707395-10.3359374 21.414791-15.5039062 32.122186-15.5039062 10.877354 0 21.754709 5.3333333 32.632063 16m-195.7923751 0 .509876-.4960938c10.7073955-10.3359374 21.414791-15.5039062 32.1221865-15.5039062 10.8773546 0 21.7547086 5.3333333 32.6320626 16m978.96187 0 .50988-.4960938"/><path d="m65.2641249 80c-10.8773541 10.6666667-21.7547083 16-32.6320624 16-10.7073955 0-21.414791-5.1679688-32.12218652-15.5039062l-.50987598-.4960938m195.792375 0c-10.877354 10.6666667-21.754708 16-32.632063 16-10.707395 0-21.414791-5.1679688-32.122186-15.5039062l-.509876-.4960938m195.792375 0c-10.877354 10.6666667-21.754709 16-32.632063 16-10.707395 0-21.414791-5.1679688-32.122186-15.5039062l-.509876-.4960938m195.792375 0c-10.877355 10.6666667-21.754709 16-32.632063 16-10.707395 0-21.414791-5.1679688-32.122186-15.5039062l-.509876-.4960938m195.792374 0c-10.877354 10.6666667-21.754708 16-32.632062 16-10.707395 0-21.414791-5.1679688-32.122186-15.5039062l-.509876-.4960938m195.792374 0c-10.877354 10.6666667-21.754708 16-32.632062 16-10.707396 0-21.414791-5.1679688-32.122187-15.5039062l-.509876-.4960938m195.792375 0c-10.877354 10.6666667-21.754708 16-32.632062 16-10.707396 0-21.414791-5.1679688-32.122187-15.5039062l-.509876-.4960938m195.792375 0c-10.877354 10.6666667-21.754708 16-32.632062 16-10.707396 0-21.414791-5.1679688-32.122187-15.5039062l-.509876-.4960938m195.792371 0c-10.87735 10.6666667-21.7547 16-32.63206 16-10.70739 0-21.41479-5.1679688-32.12218-15.5039062l-.50988-.4960938m-65.264126 0 .509876-.4960938c10.707396-10.3359374 21.41479-15.5039062 32.12219-15.5039062 10.87735 0 21.7547 5.3333333 32.63206 16m-195.792376 0 .509876-.4960938c10.707396-10.3359374 21.414791-15.5039062 32.122187-15.5039062 10.877354 0 21.754708 5.3333333 32.632062 16m-195.792375 0 .509876-.4960938c10.707396-10.3359374 21.414791-15.5039062 32.122187-15.5039062 10.877354 0 21.754708 5.3333333 32.632062 16m-195.792375 0 .509876-.4960938c10.707396-10.3359374 21.414791-15.5039062 32.122187-15.5039062 10.877354 0 21.754708 5.3333333 32.632062 16m-195.792374 0 .509876-.4960938c10.707395-10.3359374 21.414791-15.5039062 32.122186-15.5039062 10.877354 0 21.754708 5.3333333 32.632063 16m-195.792375 0 .509876-.4960938c10.707395-10.3359374 21.414791-15.5039062 32.122186-15.5039062 10.877354 0 21.754708 5.3333333 32.632063 16m-195.792375 0 .509876-.4960938c10.707395-10.3359374 21.414791-15.5039062 32.122186-15.5039062 10.877354 0 21.754709 5.3333333 32.632063 16m-195.7923751 0 .509876-.4960938c10.7073955-10.3359374 21.414791-15.5039062 32.1221865-15.5039062 10.8773546 0 21.7547086 5.3333333 32.6320626 16m978.96187 0 .50988-.4960938"/><path d="m65.2641249 112c-10.8773541 10.666667-21.7547083 16-32.6320624 16-10.7073955 0-21.414791-5.167969-32.12218652-15.503906l-.50987598-.496094m195.792375 0c-10.877354 10.666667-21.754708 16-32.632063 16-10.707395 0-21.414791-5.167969-32.122186-15.503906l-.509876-.496094m195.792375 0c-10.877354 10.666667-21.754709 16-32.632063 16-10.707395 0-21.414791-5.167969-32.122186-15.503906l-.509876-.496094m195.792375 0c-10.877355 10.666667-21.754709 16-32.632063 16-10.707395 0-21.414791-5.167969-32.122186-15.503906l-.509876-.496094m195.792374 0c-10.877354 10.666667-21.754708 16-32.632062 16-10.707395 0-21.414791-5.167969-32.122186-15.503906l-.509876-.496094m195.792374 0c-10.877354 10.666667-21.754708 16-32.632062 16-10.707396 0-21.414791-5.167969-32.122187-15.503906l-.509876-.496094m195.792375 0c-10.877354 10.666667-21.754708 16-32.632062 16-10.707396 0-21.414791-5.167969-32.122187-15.503906l-.509876-.496094m195.792375 0c-10.877354 10.666667-21.754708 16-32.632062 16-10.707396 0-21.414791-5.167969-32.122187-15.503906l-.509876-.496094m195.792371 0c-10.87735 10.666667-21.7547 16-32.63206 16-10.70739 0-21.41479-5.167969-32.12218-15.503906l-.50988-.496094m-65.264126 0 .509876-.496094c10.707396-10.335937 21.41479-15.503906 32.12219-15.503906 10.87735 0 21.7547 5.333333 32.63206 16m-195.792376 0 .509876-.496094c10.707396-10.335937 21.414791-15.503906 32.122187-15.503906 10.877354 0 21.754708 5.333333 32.632062 16m-195.792375 0 .509876-.496094c10.707396-10.335937 21.414791-15.503906 32.122187-15.503906 10.877354 0 21.754708 5.333333 32.632062 16m-195.792375 0 .509876-.496094c10.707396-10.335937 21.414791-15.503906 32.122187-15.503906 10.877354 0 21.754708 5.333333 32.632062 16m-195.792374 0 .509876-.496094c10.707395-10.335937 21.414791-15.503906 32.122186-15.503906 10.877354 0 21.754708 5.333333 32.632063 16m-195.792375 0 .509876-.496094c10.707395-10.335937 21.414791-15.503906 32.122186-15.503906 10.877354 0 21.754708 5.333333 32.632063 16m-195.792375 0 .509876-.496094c10.707395-10.335937 21.414791-15.503906 32.122186-15.503906 10.877354 0 21.754709 5.333333 32.632063 16m-195.7923751 0 .509876-.496094c10.7073955-10.335937 21.414791-15.503906 32.1221865-15.503906 10.8773546 0 21.7547086 5.333333 32.6320626 16m978.96187 0 .50988-.496094"/><path d="m65.2641249 144c-10.8773541 10.666667-21.7547083 16-32.6320624 16-10.7073955 0-21.414791-5.167969-32.12218652-15.503906l-.50987598-.496094m195.792375 0c-10.877354 10.666667-21.754708 16-32.632063 16-10.707395 0-21.414791-5.167969-32.122186-15.503906l-.509876-.496094m195.792375 0c-10.877354 10.666667-21.754709 16-32.632063 16-10.707395 0-21.414791-5.167969-32.122186-15.503906l-.509876-.496094m195.792375 0c-10.877355 10.666667-21.754709 16-32.632063 16-10.707395 0-21.414791-5.167969-32.122186-15.503906l-.509876-.496094m195.792374 0c-10.877354 10.666667-21.754708 16-32.632062 16-10.707395 0-21.414791-5.167969-32.122186-15.503906l-.509876-.496094m195.792374 0c-10.877354 10.666667-21.754708 16-32.632062 16-10.707396 0-21.414791-5.167969-32.122187-15.503906l-.509876-.496094m195.792375 0c-10.877354 10.666667-21.754708 16-32.632062 16-10.707396 0-21.414791-5.167969-32.122187-15.503906l-.509876-.496094m195.792375 0c-10.877354 10.666667-21.754708 16-32.632062 16-10.707396 0-21.414791-5.167969-32.122187-15.503906l-.509876-.496094m195.792371 0c-10.87735 10.666667-21.7547 16-32.63206 16-10.70739 0-21.41479-5.167969-32.12218-15.503906l-.50988-.496094m-65.264126 0 .509876-.496094c10.707396-10.335937 21.41479-15.503906 32.12219-15.503906 10.87735 0 21.7547 5.333333 32.63206 16m-195.792376 0 .509876-.496094c10.707396-10.335937 21.414791-15.503906 32.122187-15.503906 10.877354 0 21.754708 5.333333 32.632062 16m-195.792375 0 .509876-.496094c10.707396-10.335937 21.414791-15.503906 32.122187-15.503906 10.877354 0 21.754708 5.333333 32.632062 16m-195.792375 0 .509876-.496094c10.707396-10.335937 21.414791-15.503906 32.122187-15.503906 10.877354 0 21.754708 5.333333 32.632062 16m-195.792374 0 .509876-.496094c10.707395-10.335937 21.414791-15.503906 32.122186-15.503906 10.877354 0 21.754708 5.333333 32.632063 16m-195.792375 0 .509876-.496094c10.707395-10.335937 21.414791-15.503906 32.122186-15.503906 10.877354 0 21.754708 5.333333 32.632063 16m-195.792375 0 .509876-.496094c10.707395-10.335937 21.414791-15.503906 32.122186-15.503906 10.877354 0 21.754709 5.333333 32.632063 16m-195.7923751 0 .509876-.496094c10.7073955-10.335937 21.414791-15.503906 32.1221865-15.503906 10.8773546 0 21.7547086 5.333333 32.6320626 16m978.96187 0 .50988-.496094"/><path d="m65.2641249 176c-10.8773541 10.666667-21.7547083 16-32.6320624 16-10.7073955 0-21.414791-5.167969-32.12218652-15.503906l-.50987598-.496094m195.792375 0c-10.877354 10.666667-21.754708 16-32.632063 16-10.707395 0-21.414791-5.167969-32.122186-15.503906l-.509876-.496094m195.792375 0c-10.877354 10.666667-21.754709 16-32.632063 16-10.707395 0-21.414791-5.167969-32.122186-15.503906l-.509876-.496094m195.792375 0c-10.877355 10.666667-21.754709 16-32.632063 16-10.707395 0-21.414791-5.167969-32.122186-15.503906l-.509876-.496094m195.792374 0c-10.877354 10.666667-21.754708 16-32.632062 16-10.707395 0-21.414791-5.167969-32.122186-15.503906l-.509876-.496094m195.792374 0c-10.877354 10.666667-21.754708 16-32.632062 16-10.707396 0-21.414791-5.167969-32.122187-15.503906l-.509876-.496094m195.792375 0c-10.877354 10.666667-21.754708 16-32.632062 16-10.707396 0-21.414791-5.167969-32.122187-15.503906l-.509876-.496094m195.792375 0c-10.877354 10.666667-21.754708 16-32.632062 16-10.707396 0-21.414791-5.167969-32.122187-15.503906l-.509876-.496094m195.792371 0c-10.87735 10.666667-21.7547 16-32.63206 16-10.70739 0-21.41479-5.167969-32.12218-15.503906l-.50988-.496094m-65.264126 0 .509876-.496094c10.707396-10.335937 21.41479-15.503906 32.12219-15.503906 10.87735 0 21.7547 5.333333 32.63206 16m-195.792376 0 .509876-.496094c10.707396-10.335937 21.414791-15.503906 32.122187-15.503906 10.877354 0 21.754708 5.333333 32.632062 16m-195.792375 0 .509876-.496094c10.707396-10.335937 21.414791-15.503906 32.122187-15.503906 10.877354 0 21.754708 5.333333 32.632062 16m-195.792375 0 .509876-.496094c10.707396-10.335937 21.414791-15.503906 32.122187-15.503906 10.877354 0 21.754708 5.333333 32.632062 16m-195.792374 0 .509876-.496094c10.707395-10.335937 21.414791-15.503906 32.122186-15.503906 10.877354 0 21.754708 5.333333 32.632063 16m-195.792375 0 .509876-.496094c10.707395-10.335937 21.414791-15.503906 32.122186-15.503906 10.877354 0 21.754708 5.333333 32.632063 16m-195.792375 0 .509876-.496094c10.707395-10.335937 21.414791-15.503906 32.122186-15.503906 10.877354 0 21.754709 5.333333 32.632063 16m-195.7923751 0 .509876-.496094c10.7073955-10.335937 21.414791-15.503906 32.1221865-15.503906 10.8773546 0 21.7547086 5.333333 32.6320626 16m978.96187 0 .50988-.496094"/></g></svg>